<svg viewBox="0 0 620 394" xmlns="http://www.w3.org/2000/svg"><path d="m486.821 271.262.068.44.972-.361a55.666 55.666 0 0 1-1.034-.079h-.006zM417.124 15.701c-30.657 11.336-46.377 45.497-35.041 76.154l53.91 145.79c7.857 21.248 26.677 35.317 47.686 38.178a.12.12 0 0 0 .061.012c1.437.202 2.88.343 4.329.428h.03a58.861 58.861 0 0 0 24.048-3.57 60.156 60.156 0 0 0 7.093-3.162 54.705 54.705 0 0 0 4.127-2.39 58.248 58.248 0 0 0 11.605-9.661c14.729-15.873 20.226-39.284 12.216-60.948l-53.91-145.79c-11.336-30.651-45.503-46.371-76.154-35.035v-.006zm125.472 182.525c6.983 18.887 2.776 39.211-9.251 53.69a52.54 52.54 0 0 1-3.717 4.036 53.645 53.645 0 0 1-8.004 6.487c-1.32.874-2.69 1.7-4.103 2.458a53.352 53.352 0 0 1-7.074 3.21 51.363 51.363 0 0 1-3.687 1.211 53.886 53.886 0 0 1-18.911 2.03c-.349-.025-.691-.049-1.034-.08a52.84 52.84 0 0 1-4.836-.654c-18.325-3.32-34.491-15.959-41.406-34.656l-53.911-145.79c-10.4-28.127 4.024-59.469 32.15-69.87 28.125-10.4 59.474 4.018 69.868 32.144l53.91 145.79.006-.006zm-55.775 73.036.068.44.972-.361a55.666 55.666 0 0 1-1.034-.079h-.006z" fill="currentColor"/><path d="M373.165 64.464c0-32.016-25.934-57.97-57.926-57.97s-57.927 25.954-57.927 57.97v158.548c0 32.015 25.935 57.969 57.927 57.969s57.926-25.954 57.926-57.969V64.464z" class="window"/><path d="M283.643 101.304c10.721 0 19.413-8.698 19.413-19.427 0-10.73-8.692-19.427-19.413-19.427s-19.413 8.697-19.413 19.427 8.692 19.427 19.413 19.427zM318.585 85.762h-3.882a3.885 3.885 0 0 1 0-7.77h3.882a3.885 3.885 0 0 1 0 7.77zM256.464 81.877c0 .785-.23 1.515-.636 2.126V79.75c.406.611.636 1.34.636 2.127zM305.616 63.772a3.856 3.856 0 0 1-2.561-1.129 3.88 3.88 0 0 1 0-5.476l2.754-2.756a3.879 3.879 0 0 1 5.472-.425 3.885 3.885 0 0 1 0 5.9l-2.754 2.757a3.904 3.904 0 0 1-2.911 1.129zM255.828 108.913c.106.155.231.299.368.436a3.875 3.875 0 0 0 2.754 1.123 3.9 3.9 0 0 0 1.864-.374c.305-.144.592-.331.853-.556l2.755-2.762a3.881 3.881 0 0 0 0-5.052 3.87 3.87 0 0 0-5.472-.424l-2.754 2.563a3.41 3.41 0 0 0-.368.43v4.616zM283.642 54.679a3.884 3.884 0 0 1-3.882-3.886v-3.885a3.884 3.884 0 0 1 3.882-3.885 3.885 3.885 0 0 1 3.883 3.885v3.886a3.885 3.885 0 0 1-3.883 3.885zM283.642 120.731a3.884 3.884 0 0 1-3.882-3.885v-3.886a3.884 3.884 0 0 1 3.882-3.885 3.885 3.885 0 0 1 3.883 3.885v3.886a3.885 3.885 0 0 1-3.883 3.885zM256.676 54.36a3.88 3.88 0 0 1 4.992.044l.05.05 2.705 2.713a3.88 3.88 0 0 1 0 5.476 3.86 3.86 0 0 1-2.755 1.129c-.287 0-.573-.038-.848-.106a3.82 3.82 0 0 1-1.869-1.023l-2.755-2.757a6.036 6.036 0 0 1-.18-.23l.66-5.295zM308.332 110.472a3.873 3.873 0 0 1-2.717-1.129l-2.561-2.757a3.884 3.884 0 0 1 5.285-5.282l2.754 2.756a3.88 3.88 0 0 1 0 5.476 3.894 3.894 0 0 1-2.754.936h-.007z" fill="#FFA620" class="sun-icon"/><path d="M259.807 87.6a23.916 23.916 0 0 0 3.092 6.73c4.265 6.435 11.533 10.67 19.783 10.67 6.448 0 12.29-2.592 16.577-6.793.534-.525.673-1.339.333-2.004a1.706 1.706 0 0 0-1.809-.907 18.885 18.885 0 0 1-3.205.276c-10.311 0-18.673-8.443-18.673-18.856 0-7.05 3.831-13.188 9.502-16.427.65-.373.979-1.125.82-1.853a1.719 1.719 0 0 0-1.523-1.339 24.87 24.87 0 0 0-2.022-.085V57c-8.173 0-15.379 4.157-19.663 10.49a23.883 23.883 0 0 0-3.212 6.914V87.6z" fill="#FFDD65" class="moon-icon"/><path d="M374.665 64.458v10.845c-.468.144-.96.219-1.477.219h-25.109c-2.811 0-5.11-2.302-5.11-5.115 0-1.409.573-2.681 1.502-3.61a5.08 5.08 0 0 1 3.608-1.504h.723a5.091 5.091 0 0 1 .019-7.203 5.08 5.08 0 0 1 3.608-1.503h21.725c.336 2.576.511 5.201.511 7.87zM374.666 103.324v29.375H339.96c-4.362 0-7.927-3.574-7.927-7.933 0-2.189.891-4.16 2.331-5.607a7.873 7.873 0 0 1 5.596-2.326h1.122c-1.421-1.447-2.299-3.399-2.299-5.576 0-2.176.884-4.159 2.33-5.6a7.877 7.877 0 0 1 5.597-2.333h27.956z" fill="#fff" class="cloud-icon"/><path d="m291.538 273.148-.093.443h1.053a46.801 46.801 0 0 1-.96-.443zm83.615-216.56C371.29 26.956 345.888 4 315.245 4s-54.76 21.816-59.572 50.36c-.006.013-.006.026-.006.038a57.466 57.466 0 0 0-.648 5.214v.044a61.07 61.07 0 0 0-.187 4.802v158.547c0 23.107 13.019 43.226 32.095 53.392a.122.122 0 0 0 .056.031 54.939 54.939 0 0 0 3.988 1.94c.013.006.019.012.032.012a59.948 59.948 0 0 0 24.248 5.089c2.674 0 5.31-.174 7.896-.517a55.376 55.376 0 0 0 4.793-.83 59.438 59.438 0 0 0 14.508-5.132c19.693-9.973 33.223-30.429 33.223-53.985V64.458c0-2.67-.175-5.295-.511-7.87h-.007zm-4.474 166.417c0 20.538-11.205 38.499-27.82 48.091a53.581 53.581 0 0 1-4.979 2.545 54.503 54.503 0 0 1-9.946 3.374 53.02 53.02 0 0 1-4.793.898 55.012 55.012 0 0 1-11.847.424 54.88 54.88 0 0 1-19.756-5.189 52.78 52.78 0 0 1-4.393-2.339c-16.347-9.66-27.334-27.472-27.334-47.804V64.458c0-.268 0-.53.007-.792.012-.91.049-1.815.106-2.713.137-2.208.405-4.372.791-6.499l.168-.867c5.061-25.401 27.515-44.598 54.362-44.598 26.848 0 51.046 20.725 54.873 47.598.374 2.57.561 5.202.561 7.87v158.548zm-79.141 50.143-.093.443h1.053a46.801 46.801 0 0 1-.96-.443z" fill="currentColor"/><path d="M602.954 124.099h-35.678c-4.747 0-8.594 3.85-8.594 8.6s3.847 8.6 8.594 8.6h35.678c4.746 0 8.594-3.85 8.594-8.6s-3.848-8.6-8.594-8.6zM562.676 157.789h-54.642c-7.273 0-13.169 5.899-13.169 13.175 0 7.276 5.896 13.175 13.169 13.175h54.642c7.272 0 13.168-5.899 13.168-13.175 0-7.276-5.896-13.175-13.168-13.175z" fill="#BFDDE2" class="cloud-icon"/><path d="M596.533 170.967h-54.642c-7.273 0-13.168 5.898-13.168 13.175 0 7.276 5.895 13.175 13.168 13.175h54.642c7.273 0 13.168-5.899 13.168-13.175 0-7.277-5.895-13.175-13.168-13.175zM101.338 38.838H46.696c-7.273 0-13.169 5.898-13.169 13.175 0 7.276 5.896 13.175 13.169 13.175h54.642c7.272 0 13.168-5.899 13.168-13.175 0-7.276-5.896-13.175-13.168-13.175z" fill="#BFDDE2" class="cloud-icon"/><path d="M44.272 48.854H8.594c-4.746 0-8.594 3.85-8.594 8.6s3.848 8.6 8.594 8.6h35.678c4.747 0 8.594-3.85 8.594-8.6s-3.847-8.6-8.594-8.6z" fill="#BFDDE2" class="cloud-icon"/><path d="M60.85 62.45H25.172c-4.746 0-8.594 3.85-8.594 8.6s3.848 8.6 8.594 8.6H60.85c4.747 0 8.594-3.85 8.594-8.6s-3.847-8.6-8.594-8.6z" fill="#BFDDE2" class="cloud-icon"/><path d="M342.798 270.884a919.014 919.014 0 0 1-.417 5.894c-.823.417-1.658.817-2.506 1.197l-2.374-.181c.112-1.478.218-2.931.318-4.366 5.278-75.394-4.861-93.742-8.089-97.584l-15.692 12.186-14.988-11.244-7.996 29.175a.374.374 0 0 0 .056.324l5.827 8.756-3.982 2.657-5.833-8.756a5.17 5.17 0 0 1-.686-4.247l8.27-30.198a4.061 4.061 0 0 1 2.605-2.775 4.066 4.066 0 0 1 3.764.592l12.913 9.692 13.43-10.434c1.533-1.191 3.751-1.067 5.147.287 4.824 4.683 15.213 23.655 10.233 99.025z" fill="currentColor"/><path d="M311.234 278.125v.043h-20.298s-.018 0-.031-.012l-3.988-1.94s-.038-.012-.056-.031a3.786 3.786 0 0 1-.405-2.7l.629-2.888 10.351-47.573 4.681 1.023-10.638 48.889-.094.443h1.053a54.88 54.88 0 0 0 18.796 4.746z" fill="currentColor"/><path d="M316.99 308.322c-6.001 0-10.881-4.883-10.881-10.889v-6.586h4.793v6.586a6.095 6.095 0 0 0 6.088 6.093 6.1 6.1 0 0 0 6.095-6.093v-42.409h-6.001v-4.796h10.794v47.199c0 6.006-4.88 10.889-10.881 10.889l-.007.006z" fill="currentColor"/><path d="M155.659 374.909c-.102-.864-.517-1.534-1.244-2.011-.727-.478-1.62-.716-2.676-.716-.773 0-1.449.125-2.029.375-.574.25-1.022.594-1.346 1.031a2.47 2.47 0 0 0-.478 1.492c0 .465.111.866.333 1.201.227.33.517.605.869.827.352.216.722.395 1.108.537.386.136.742.247 1.065.332l1.773.478c.455.119.96.284 1.517.494.563.21 1.1.497 1.611.861.517.358.943.818 1.278 1.38.336.563.503 1.253.503 2.071 0 .944-.247 1.796-.741 2.557-.489.762-1.205 1.367-2.148 1.816-.938.448-2.077.673-3.418.673-1.25 0-2.332-.202-3.247-.605-.909-.404-1.625-.966-2.148-1.688-.517-.721-.809-1.559-.877-2.514h2.181c.057.659.279 1.205.665 1.636.392.426.887.745 1.483.955.602.204 1.25.307 1.943.307.807 0 1.532-.131 2.174-.392.642-.267 1.15-.637 1.525-1.108a2.628 2.628 0 0 0 .563-1.671c0-.579-.162-1.051-.486-1.415-.324-.363-.75-.659-1.278-.886-.529-.227-1.1-.426-1.714-.596l-2.147-.614c-1.364-.392-2.443-.952-3.239-1.679-.795-.727-1.193-1.679-1.193-2.855 0-.977.264-1.83.793-2.557.534-.733 1.25-1.301 2.147-1.705.904-.409 1.912-.613 3.026-.613 1.125 0 2.125.202 3 .605.875.398 1.568.943 2.079 1.636.517.693.79 1.48.819 2.361h-2.046zm20.487 4.364c0 1.841-.333 3.432-.998 4.772-.664 1.341-1.576 2.375-2.735 3.103-1.159.727-2.483 1.091-3.972 1.091-1.489 0-2.812-.364-3.972-1.091-1.159-.728-2.071-1.762-2.735-3.103-.665-1.34-.997-2.931-.997-4.772 0-1.841.332-3.432.997-4.773.664-1.341 1.576-2.375 2.735-3.102 1.16-.728 2.483-1.091 3.972-1.091 1.489 0 2.813.363 3.972 1.091 1.159.727 2.071 1.761 2.735 3.102.665 1.341.998 2.932.998 4.773zm-2.046 0c0-1.512-.253-2.787-.758-3.827-.5-1.04-1.179-1.827-2.037-2.361-.853-.534-1.807-.801-2.864-.801s-2.014.267-2.872.801c-.852.534-1.531 1.321-2.037 2.361-.5 1.04-.75 2.315-.75 3.827 0 1.511.25 2.787.75 3.826.506 1.04 1.185 1.827 2.037 2.361.858.534 1.815.801 2.872.801s2.011-.267 2.864-.801c.858-.534 1.537-1.321 2.037-2.361.505-1.039.758-2.315.758-3.826zm5.6-8.728h2.522l5.932 14.489h.205l5.931-14.489h2.523V388h-1.977v-13.261h-.171L189.211 388h-1.909l-5.455-13.261h-.17V388H179.7v-17.455zM201.051 388v-17.455h10.534v1.875h-8.42v5.898h7.875v1.875h-7.875v5.932h8.557V388h-10.671zm13.389-15.58v-1.875h13.091v1.875h-5.488V388h-2.114v-15.58h-5.489zM230.793 388v-17.455h2.114v7.773h9.307v-7.773h2.113V388h-2.113v-7.807h-9.307V388h-2.114zm19.88-17.455V388h-2.114v-17.455h2.114zm18.078 0V388h-2.045l-9.511-13.705h-.171V388h-2.113v-17.455h2.045l9.545 13.739h.171v-13.739h2.079zM284.913 376a6.179 6.179 0 0 0-.742-1.543 4.771 4.771 0 0 0-1.082-1.176 4.538 4.538 0 0 0-1.415-.741 5.62 5.62 0 0 0-1.739-.256 5.181 5.181 0 0 0-2.821.801c-.846.534-1.52 1.321-2.02 2.361-.5 1.04-.75 2.315-.75 3.827 0 1.511.253 2.787.759 3.826.506 1.04 1.19 1.827 2.054 2.361.864.534 1.835.801 2.915.801 1 0 1.88-.213 2.642-.639a4.542 4.542 0 0 0 1.79-1.824c.431-.789.647-1.718.647-2.787l.648.137h-5.25v-1.875h6.648v1.875c0 1.437-.307 2.687-.921 3.75a6.363 6.363 0 0 1-2.522 2.471c-1.069.58-2.296.87-3.682.87-1.546 0-2.904-.364-4.074-1.091-1.165-.728-2.074-1.762-2.727-3.103-.648-1.34-.972-2.931-.972-4.772 0-1.381.185-2.622.554-3.725.375-1.108.903-2.051 1.585-2.829a6.93 6.93 0 0 1 2.421-1.79c.931-.415 1.957-.622 3.076-.622.921 0 1.779.139 2.574.417a6.907 6.907 0 0 1 2.139 1.168 6.632 6.632 0 0 1 1.577 1.798c.421.694.71 1.463.869 2.31h-2.181zm15.824 12-4.773-17.455h2.148l3.648 14.216h.17l3.716-14.216h2.387l3.716 14.216h.17l3.648-14.216h2.147L312.942 388h-2.182l-3.852-13.909h-.137L302.919 388h-2.182zm19.611 0v-17.455h10.534v1.875h-8.42v5.898h7.875v1.875h-7.875v5.932h8.556V388h-10.67zm28.185-17.455V388h-2.046l-9.511-13.705h-.171V388h-2.113v-17.455h2.045l9.546 13.739h.17v-13.739h2.08zm3.275 1.875v-1.875h13.09v1.875h-5.488V388h-2.114v-15.58h-5.488zM378.081 388l-4.773-17.455h2.148l3.648 14.216h.17l3.716-14.216h2.386l3.716 14.216h.171l3.648-14.216h2.147L390.286 388h-2.182l-3.853-13.909h-.136L380.263 388h-2.182zm19.611 0v-17.455h5.897c1.364 0 2.483.233 3.358.699.875.461 1.523 1.094 1.944 1.901.42.807.63 1.724.63 2.753 0 1.028-.21 1.94-.63 2.736-.421.795-1.066 1.42-1.935 1.875-.869.448-1.98.673-3.332.673h-4.773v-1.909h4.704c.932 0 1.682-.137 2.25-.409.574-.273.989-.659 1.245-1.159.261-.506.392-1.108.392-1.807 0-.699-.131-1.31-.392-1.833-.262-.522-.679-.926-1.253-1.21-.574-.29-1.333-.435-2.276-.435h-3.716V388h-2.113zm8.216-7.841 4.295 7.841h-2.454l-4.228-7.841h2.387zm21.863-.886c0 1.841-.333 3.432-.998 4.772-.664 1.341-1.576 2.375-2.735 3.103-1.159.727-2.483 1.091-3.972 1.091-1.489 0-2.812-.364-3.972-1.091-1.159-.728-2.071-1.762-2.735-3.103-.665-1.34-.997-2.931-.997-4.772 0-1.841.332-3.432.997-4.773.664-1.341 1.576-2.375 2.735-3.102 1.16-.728 2.483-1.091 3.972-1.091 1.489 0 2.813.363 3.972 1.091 1.159.727 2.071 1.761 2.735 3.102.665 1.341.998 2.932.998 4.773zm-2.046 0c0-1.512-.253-2.787-.758-3.827-.5-1.04-1.179-1.827-2.037-2.361-.853-.534-1.807-.801-2.864-.801s-2.014.267-2.872.801c-.852.534-1.531 1.321-2.037 2.361-.5 1.04-.75 2.315-.75 3.827 0 1.511.25 2.787.75 3.826.506 1.04 1.185 1.827 2.037 2.361.858.534 1.815.801 2.872.801s2.011-.267 2.864-.801c.858-.534 1.537-1.321 2.037-2.361.505-1.039.758-2.315.758-3.826zm19.44-8.728V388h-2.045l-9.511-13.705h-.171V388h-2.113v-17.455h2.045l9.545 13.739h.171v-13.739h2.079zM461.327 376a6.179 6.179 0 0 0-.742-1.543 4.771 4.771 0 0 0-1.082-1.176 4.538 4.538 0 0 0-1.415-.741 5.62 5.62 0 0 0-1.739-.256 5.181 5.181 0 0 0-2.821.801c-.846.534-1.519 1.321-2.019 2.361-.5 1.04-.75 2.315-.75 3.827 0 1.511.252 2.787.758 3.826.506 1.04 1.19 1.827 2.054 2.361.864.534 1.835.801 2.915.801 1 0 1.88-.213 2.642-.639a4.542 4.542 0 0 0 1.79-1.824c.431-.789.647-1.718.647-2.787l.648.137h-5.25v-1.875h6.648v1.875c0 1.437-.307 2.687-.921 3.75a6.363 6.363 0 0 1-2.522 2.471c-1.069.58-2.296.87-3.682.87-1.546 0-2.904-.364-4.074-1.091-1.165-.728-2.074-1.762-2.727-3.103-.648-1.34-.972-2.931-.972-4.772 0-1.381.185-2.622.554-3.725.375-1.108.903-2.051 1.585-2.829a6.93 6.93 0 0 1 2.421-1.79c.932-.415 1.957-.622 3.076-.622.921 0 1.779.139 2.574.417a6.896 6.896 0 0 1 2.139 1.168 6.632 6.632 0 0 1 1.577 1.798c.421.694.71 1.463.87 2.31h-2.182zm7.097 12.136c-.42 0-.781-.15-1.082-.451a1.474 1.474 0 0 1-.452-1.083c0-.42.15-.781.452-1.082a1.477 1.477 0 0 1 1.082-.452c.42 0 .781.151 1.082.452.302.301.452.662.452 1.082 0 .279-.071.534-.213.767a1.589 1.589 0 0 1-.554.563 1.464 1.464 0 0 1-.767.204zm6.609 0c-.42 0-.781-.15-1.082-.451a1.478 1.478 0 0 1-.452-1.083c0-.42.151-.781.452-1.082a1.477 1.477 0 0 1 1.082-.452c.421 0 .782.151 1.083.452.301.301.451.662.451 1.082 0 .279-.071.534-.213.767a1.589 1.589 0 0 1-.554.563 1.464 1.464 0 0 1-.767.204zm6.61 0c-.421 0-.781-.15-1.083-.451a1.477 1.477 0 0 1-.451-1.083c0-.42.15-.781.451-1.082a1.48 1.48 0 0 1 1.083-.452c.42 0 .781.151 1.082.452.301.301.452.662.452 1.082 0 .279-.071.534-.213.767a1.597 1.597 0 0 1-.554.563 1.464 1.464 0 0 1-.767.204z" fill="currentColor"/><path d="m340.797 68.448-2.899-.91-2.388 1.872-.033-3.04-2.514-1.7 2.879-.962.836-2.921 1.811 2.443 3.031-.107-1.764 2.477 1.041 2.848zM358.795 94.677l-4.471-1.407-3.701 2.888-.04-4.694-3.888-2.629 4.445-1.487 1.3-4.514 2.786 3.77 4.69-.159-2.726 3.824 1.605 4.408zM618.573 125.947l-5.705-1.799-4.716 3.684-.053-5.988-4.962-3.352 5.672-1.899 1.651-5.756 3.563 4.813 5.977-.205-3.47 4.872 2.043 5.63zM576.803 170.353l-4.478-1.414-3.695 2.888-.039-4.694-3.888-2.622 4.445-1.494 1.293-4.507 2.793 3.771 4.69-.16-2.726 3.817 1.605 4.415zM82.255 39.588l-5.705-1.8-4.716 3.685-.054-5.988-4.962-3.353 5.679-1.898 1.652-5.756 3.555 4.813 5.984-.206-3.476 4.873 2.043 5.63zM41.078 128.52l-4.47-1.414-3.702 2.887-.04-4.693-3.887-2.622 4.444-1.494 1.3-4.508 2.787 3.771 4.69-.166-2.727 3.824 1.605 4.415zM60.463 155.805l-4.477-1.408-3.695 2.888-.04-4.694-3.888-2.628 4.445-1.488 1.294-4.507 2.792 3.771 4.69-.166-2.726 3.823 1.605 4.409z" fill="#FFDD65" class="star-icon"/><path d="m90.74 264.652-17.279-5.79a2.143 2.143 0 0 1-1.35-2.708 2.144 2.144 0 0 1 2.708-1.352l17.279 5.791c46.567 15.603 98.135-12.523 114.956-62.709 16.814-50.181-7.386-103.705-53.959-119.315l-15.641-5.24c-2.024-.679-3.1-2.929-2.397-5.026L157.02 2.757c.703-2.091 2.917-3.24 4.94-2.562l100.11 33.55a2.144 2.144 0 0 1 1.352 2.708 2.144 2.144 0 0 1-2.709 1.351L160.994 4.39l-21.785 65.013 15.249 5.112c48.805 16.356 74.222 72.308 56.656 124.732-17.567 52.419-71.569 81.761-120.374 65.405z" fill="currentColor"/></svg>