<svg viewBox="0 0 24 24" xmlns="http://www.w3.org/2000/svg"><path fill-rule="evenodd" clip-rule="evenodd" d="M12.054 3.6c-.32 0-.626-.126-.852-.351a1.197 1.197 0 0 1-.354-.849V1.2a1.208 1.208 0 0 1 2.41 0v1.2c.001.318-.126.623-.352.849a1.208 1.208 0 0 1-.852.351zm6.822 2.808a1.197 1.197 0 0 1-.796-2.04l.857-.852a1.204 1.204 0 0 1 1.355-.337 1.206 1.206 0 0 1 .683.68 1.195 1.195 0 0 1-.339 1.349l-.855.852a1.206 1.206 0 0 1-.905.348zM12.054 18c3.329 0 6.027-2.686 6.027-6s-2.698-6-6.027-6-6.027 2.686-6.027 6 2.698 6 6.027 6zm10.848-4.8h-1.205c-.32 0-.626-.126-.852-.351a1.197 1.197 0 0 1 .852-2.049h1.205c.32 0 .627.126.853.351a1.197 1.197 0 0 1-.853 2.049zm-21.697 0h1.206c.32 0 .626-.126.852-.351a1.197 1.197 0 0 0-.852-2.049H1.205c-.32 0-.626.126-.852.351a1.197 1.197 0 0 0 0 1.697c.226.226.533.352.852.352zm2.72 7.543c.147.06.304.09.463.089.308.015.61-.088.843-.288l.856-.852a1.197 1.197 0 0 0-.063-1.63A1.208 1.208 0 0 0 4.388 18l-.856.792a1.197 1.197 0 0 0 0 1.692c.112.111.246.2.393.259zm7.277 2.906a1.208 1.208 0 0 0 2.057-.849v-1.2c0-.318-.127-.623-.353-.849a1.208 1.208 0 0 0-2.058.849v1.2c0 .318.127.623.354.849zM5.232 6.408a1.208 1.208 0 0 1-.844-.348l-.856-.852a1.197 1.197 0 0 1 .063-1.63 1.208 1.208 0 0 1 1.636-.062l.856.852a1.197 1.197 0 0 1 0 1.692 1.206 1.206 0 0 1-.856.348zm13.644 14.076c.225.222.528.347.844.348.312.018.619-.085.856-.288a1.197 1.197 0 0 0 0-1.692L19.72 18a1.21 1.21 0 0 0-1.438.2 1.199 1.199 0 0 0-.201 1.432l.795.852z" fill="#FFA620"/></svg>