<svg viewBox="0 0 620 390" xmlns="http://www.w3.org/2000/svg"><path d="M373.165 60.464c0-32.016-25.934-57.97-57.926-57.97s-57.927 25.954-57.927 57.97v158.548c0 32.015 25.935 57.969 57.927 57.969s57.926-25.954 57.926-57.969V60.464z" class="window"/><path d="M183.432 279.469a2.493 2.493 0 0 1-2.493-2.494v-51.016H78.479a5.05 5.05 0 0 1-4.325-2.407 5.07 5.07 0 0 1-.237-4.946L177.088 9.71c.978-1.983 3.091-2.98 5.241-2.476 2.156.506 3.602 2.327 3.602 4.54V220.97h41.848a2.493 2.493 0 0 1 2.493 2.494 2.493 2.493 0 0 1-2.493 2.495h-41.848v51.016a2.492 2.492 0 0 1-2.493 2.494h-.006zm-2.493-266.304L78.379 220.814s-.025.056 0 .106c.031.05.063.05.094.05h102.46V13.172l.006-.007zM511.849 279.469a2.492 2.492 0 0 1-2.493-2.494v-51.016h-102.46a5.057 5.057 0 0 1-4.325-2.407 5.052 5.052 0 0 1-.237-4.946L505.505 9.71c.978-1.983 3.091-2.98 5.241-2.476 2.156.506 3.602 2.327 3.602 4.54V220.97h41.848a2.493 2.493 0 0 1 2.493 2.494 2.493 2.493 0 0 1-2.493 2.495h-41.848v51.016a2.493 2.493 0 0 1-2.493 2.494h-.006zm-2.493-266.304-102.56 207.649s-.025.05 0 .106c.031.05.062.05.093.05H509.35V13.172l.006-.007z" fill="currentColor"/><path d="M283.643 97.304c10.721 0 19.413-8.698 19.413-19.427 0-10.73-8.692-19.427-19.413-19.427s-19.413 8.697-19.413 19.427 8.692 19.427 19.413 19.427zM318.585 81.762h-3.882a3.885 3.885 0 0 1 0-7.77h3.882a3.885 3.885 0 0 1 0 7.77zM256.464 77.877c0 .785-.23 1.515-.636 2.126V75.75c.406.611.636 1.34.636 2.127zM305.616 59.772a3.856 3.856 0 0 1-2.561-1.129 3.88 3.88 0 0 1 0-5.476l2.754-2.756a3.879 3.879 0 0 1 5.472-.425 3.885 3.885 0 0 1 0 5.9l-2.754 2.757a3.904 3.904 0 0 1-2.911 1.129zM255.828 104.913c.106.155.231.299.368.436a3.875 3.875 0 0 0 2.754 1.123 3.89 3.89 0 0 0 2.717-.93l2.755-2.762a3.881 3.881 0 0 0 0-5.052 3.868 3.868 0 0 0-3.608-1.303 3.82 3.82 0 0 0-1.864.879l-2.754 2.563c-.137.137-.262.281-.368.43v4.616zM283.642 50.679a3.884 3.884 0 0 1-3.882-3.886v-3.885a3.884 3.884 0 0 1 3.882-3.885 3.885 3.885 0 0 1 3.883 3.885v3.886a3.885 3.885 0 0 1-3.883 3.885zM283.642 116.731a3.884 3.884 0 0 1-3.882-3.885v-3.886a3.884 3.884 0 0 1 3.882-3.885 3.885 3.885 0 0 1 3.883 3.885v3.886a3.885 3.885 0 0 1-3.883 3.885zM256.676 50.36a3.88 3.88 0 0 1 4.992.044l.05.05 2.705 2.713a3.88 3.88 0 0 1 0 5.476 3.86 3.86 0 0 1-2.755 1.129c-.287 0-.573-.038-.848-.106a3.82 3.82 0 0 1-1.869-1.023l-2.755-2.757a6.036 6.036 0 0 1-.18-.23l.66-5.295zM308.332 106.472a3.873 3.873 0 0 1-2.717-1.129l-2.561-2.757a3.884 3.884 0 0 1 5.285-5.282l2.754 2.756a3.88 3.88 0 0 1 0 5.476 3.894 3.894 0 0 1-2.754.936h-.007z" fill="#FFA620" class="sun-icon"/><path d="M259.807 83.6a23.916 23.916 0 0 0 3.092 6.73c4.265 6.435 11.533 10.67 19.783 10.67 6.448 0 12.29-2.593 16.577-6.793.534-.525.673-1.339.333-2.004a1.706 1.706 0 0 0-1.809-.907 18.885 18.885 0 0 1-3.205.276c-10.311 0-18.673-8.443-18.673-18.856 0-7.05 3.831-13.188 9.502-16.427.65-.373.979-1.125.82-1.853a1.719 1.719 0 0 0-1.523-1.339 24.87 24.87 0 0 0-2.022-.085V53c-8.173 0-15.379 4.157-19.663 10.49a23.883 23.883 0 0 0-3.212 6.914V83.6z" fill="#FFDD65" class="moon-icon"/><path d="M374.665 60.458v10.845c-.468.144-.96.219-1.477.219h-25.109c-2.811 0-5.11-2.302-5.11-5.115 0-1.409.573-2.681 1.502-3.61a5.08 5.08 0 0 1 3.608-1.503h.723a5.091 5.091 0 0 1 .019-7.204 5.08 5.08 0 0 1 3.608-1.503h21.725c.336 2.576.511 5.201.511 7.87zM374.666 99.325v29.374H339.96c-4.362 0-7.927-3.574-7.927-7.933 0-2.189.891-4.16 2.331-5.607a7.873 7.873 0 0 1 5.596-2.326h1.122c-1.421-1.447-2.299-3.399-2.299-5.576 0-2.176.884-4.159 2.33-5.6a7.877 7.877 0 0 1 5.597-2.332h27.956z" fill="#fff" class="cloud-icon"/><path d="m291.538 269.148-.093.443h1.053a46.801 46.801 0 0 1-.96-.443zm83.615-216.56C371.29 22.956 345.888 0 315.245 0s-54.76 21.816-59.572 50.36c-.006.013-.006.026-.006.038a57.466 57.466 0 0 0-.648 5.214v.044a61.068 61.068 0 0 0-.187 4.802v158.547c0 23.107 13.019 43.226 32.095 53.392a.122.122 0 0 0 .056.031 54.739 54.739 0 0 0 3.988 1.94c.013.006.019.012.032.012a59.948 59.948 0 0 0 24.248 5.089c2.674 0 5.31-.174 7.896-.517a55.376 55.376 0 0 0 4.793-.83 59.5 59.5 0 0 0 14.508-5.132c19.693-9.973 33.223-30.429 33.223-53.985V60.458c0-2.67-.175-5.295-.511-7.87h-.007zm-4.474 166.417c0 20.538-11.205 38.499-27.82 48.091a53.581 53.581 0 0 1-4.979 2.545 54.503 54.503 0 0 1-9.946 3.374 53.02 53.02 0 0 1-4.793.898 55.012 55.012 0 0 1-11.847.424 54.88 54.88 0 0 1-19.756-5.189 52.78 52.78 0 0 1-4.393-2.339c-16.347-9.66-27.334-27.472-27.334-47.804V60.458c0-.268 0-.53.007-.792.012-.91.049-1.815.106-2.713.137-2.208.405-4.372.791-6.499l.168-.867c5.061-25.401 27.515-44.598 54.362-44.598 26.848 0 51.046 20.725 54.873 47.598.374 2.57.561 5.202.561 7.87v158.548zm-79.141 50.143-.093.443h1.053a46.801 46.801 0 0 1-.96-.443z" fill="currentColor"/><path d="M602.954 120.099h-35.678c-4.747 0-8.594 3.85-8.594 8.6s3.847 8.6 8.594 8.6h35.678c4.746 0 8.594-3.85 8.594-8.6s-3.848-8.6-8.594-8.6zM562.676 153.789h-54.642c-7.273 0-13.169 5.899-13.169 13.175 0 7.276 5.896 13.175 13.169 13.175h54.642c7.272 0 13.168-5.899 13.168-13.175 0-7.276-5.896-13.175-13.168-13.175z" fill="#BFDDE2" class="cloud-icon"/><path d="M596.533 166.967h-54.642c-7.273 0-13.168 5.898-13.168 13.175 0 7.276 5.895 13.175 13.168 13.175h54.642c7.273 0 13.168-5.899 13.168-13.175 0-7.277-5.895-13.175-13.168-13.175zM101.338 34.838H46.696c-7.273 0-13.169 5.898-13.169 13.175 0 7.276 5.896 13.175 13.169 13.175h54.642c7.272 0 13.168-5.899 13.168-13.175 0-7.276-5.896-13.175-13.168-13.175z" fill="#BFDDE2" class="cloud-icon"/><path d="M44.272 44.854H8.594c-4.746 0-8.594 3.85-8.594 8.6s3.848 8.6 8.594 8.6h35.678c4.747 0 8.594-3.85 8.594-8.6s-3.847-8.6-8.594-8.6z" fill="#BFDDE2" class="cloud-icon"/><path d="M60.85 58.45H25.172c-4.746 0-8.594 3.85-8.594 8.6s3.848 8.6 8.594 8.6H60.85c4.747 0 8.594-3.85 8.594-8.6s-3.847-8.6-8.594-8.6z" fill="#BFDDE2" class="cloud-icon"/><path d="M342.798 266.884a919.014 919.014 0 0 1-.417 5.894c-.823.417-1.658.816-2.506 1.197l-2.374-.181c.112-1.478.218-2.931.318-4.366 5.278-75.394-4.861-93.742-8.089-97.584l-15.692 12.186-14.988-11.244-7.996 29.175a.374.374 0 0 0 .056.324l5.827 8.756-3.982 2.657-5.833-8.756a5.17 5.17 0 0 1-.686-4.247l8.27-30.198a4.061 4.061 0 0 1 2.605-2.775 4.066 4.066 0 0 1 3.764.592l12.913 9.692 13.43-10.434c1.533-1.191 3.751-1.067 5.147.287 4.824 4.683 15.213 23.655 10.233 99.025z" fill="currentColor"/><path d="M311.234 274.125v.043h-20.298s-.018 0-.031-.012l-3.988-1.94s-.038-.012-.056-.031a3.786 3.786 0 0 1-.405-2.7l.629-2.888 10.351-47.573 4.681 1.023-10.638 48.889-.094.443h1.053a54.88 54.88 0 0 0 18.796 4.746z" fill="currentColor"/><path d="M316.99 304.322c-6.001 0-10.881-4.883-10.881-10.889v-6.586h4.793v6.586a6.095 6.095 0 0 0 6.088 6.093 6.1 6.1 0 0 0 6.095-6.093v-42.409h-6.001v-4.796h10.794v47.199c0 6.006-4.88 10.889-10.881 10.889l-.007.006z" fill="currentColor"/><path d="M199.967 384v-17.455h5.898c1.369 0 2.489.248 3.358.742.875.489 1.523 1.151 1.943 1.986.42.835.631 1.767.631 2.795 0 1.029-.211 1.963-.631 2.804-.415.841-1.057 1.512-1.926 2.012-.869.494-1.983.741-3.341.741h-4.227v-1.875h4.159c.937 0 1.69-.162 2.258-.486.568-.324.98-.761 1.236-1.312.261-.557.392-1.185.392-1.884 0-.699-.131-1.324-.392-1.875-.256-.551-.67-.983-1.244-1.295-.574-.318-1.335-.478-2.284-.478h-3.716V384h-2.114zm14.169 0h-2.216l6.409-17.455h2.182L226.92 384h-2.216l-5.216-14.693h-.136L214.136 384zm.818-6.818h8.932v1.875h-8.932v-1.875zM240.751 372a6.179 6.179 0 0 0-.742-1.543 4.771 4.771 0 0 0-1.082-1.176 4.538 4.538 0 0 0-1.415-.741 5.625 5.625 0 0 0-1.739-.256 5.181 5.181 0 0 0-2.821.801c-.846.534-1.52 1.321-2.02 2.361-.5 1.04-.75 2.315-.75 3.827 0 1.511.253 2.787.759 3.826.506 1.04 1.19 1.827 2.054 2.361.863.534 1.835.801 2.915.801 1 0 1.88-.213 2.642-.639a4.533 4.533 0 0 0 1.789-1.824c.432-.789.648-1.718.648-2.787l.648.137h-5.25v-1.875h6.648v1.875c0 1.437-.307 2.687-.921 3.75a6.359 6.359 0 0 1-2.523 2.471c-1.068.58-2.295.87-3.681.87-1.546 0-2.904-.364-4.074-1.091-1.165-.728-2.074-1.762-2.728-3.103-.647-1.34-.971-2.931-.971-4.772 0-1.381.185-2.622.554-3.725.375-1.108.903-2.051 1.585-2.829a6.93 6.93 0 0 1 2.421-1.79c.931-.415 1.957-.622 3.076-.622.921 0 1.779.139 2.574.417a6.907 6.907 0 0 1 2.139 1.168 6.632 6.632 0 0 1 1.577 1.798c.42.694.71 1.463.869 2.31h-2.181zm5.904 12v-17.455h10.534v1.875h-8.421v5.898h7.875v1.875h-7.875v5.932h8.557V384h-10.67zm34.934-17.455V384h-2.045l-9.512-13.705h-.17V384h-2.114v-17.455h2.046l9.545 13.739h.171v-13.739h2.079zm18.957 8.728c0 1.841-.332 3.432-.997 4.772-.665 1.341-1.577 2.375-2.736 3.103-1.159.727-2.483 1.091-3.972 1.091-1.488 0-2.812-.364-3.971-1.091-1.159-.728-2.071-1.762-2.736-3.103-.665-1.34-.997-2.931-.997-4.772 0-1.841.332-3.432.997-4.773.665-1.341 1.577-2.375 2.736-3.102 1.159-.728 2.483-1.091 3.971-1.091 1.489 0 2.813.363 3.972 1.091 1.159.727 2.071 1.761 2.736 3.102s.997 2.932.997 4.773zm-2.045 0c0-1.512-.253-2.787-.759-3.827-.5-1.04-1.179-1.827-2.037-2.361-.852-.534-1.807-.801-2.864-.801-1.056 0-2.014.267-2.872.801-.852.534-1.531 1.321-2.037 2.361-.5 1.04-.75 2.315-.75 3.827 0 1.511.25 2.787.75 3.826.506 1.04 1.185 1.827 2.037 2.361.858.534 1.816.801 2.872.801 1.057 0 2.012-.267 2.864-.801.858-.534 1.537-1.321 2.037-2.361.506-1.039.759-2.315.759-3.826zm3.918-6.853v-1.875h13.091v1.875h-5.489V384h-2.114v-15.58h-5.488zM325.522 384v-17.455h10.466v1.875h-8.353v5.898h7.569v1.875h-7.569V384h-2.113zm28.813-8.727c0 1.841-.332 3.432-.997 4.772-.665 1.341-1.577 2.375-2.736 3.103-1.159.727-2.483 1.091-3.971 1.091-1.489 0-2.813-.364-3.972-1.091-1.159-.728-2.071-1.762-2.736-3.103-.665-1.34-.997-2.931-.997-4.772 0-1.841.332-3.432.997-4.773.665-1.341 1.577-2.375 2.736-3.102 1.159-.728 2.483-1.091 3.972-1.091 1.488 0 2.812.363 3.971 1.091 1.159.727 2.071 1.761 2.736 3.102s.997 2.932.997 4.773zm-2.045 0c0-1.512-.253-2.787-.759-3.827-.5-1.04-1.179-1.827-2.037-2.361-.852-.534-1.807-.801-2.863-.801-1.057 0-2.015.267-2.873.801-.852.534-1.531 1.321-2.037 2.361-.5 1.04-.75 2.315-.75 3.827 0 1.511.25 2.787.75 3.826.506 1.04 1.185 1.827 2.037 2.361.858.534 1.816.801 2.873.801 1.056 0 2.011-.267 2.863-.801.858-.534 1.537-1.321 2.037-2.361.506-1.039.759-2.315.759-3.826zm17.054-8.728h2.113v11.557c0 1.193-.281 2.259-.844 3.196-.556.932-1.343 1.668-2.36 2.208-1.017.534-2.211.801-3.58.801-1.369 0-2.562-.267-3.579-.801-1.017-.54-1.807-1.276-2.37-2.208-.557-.937-.835-2.003-.835-3.196v-11.557h2.114v11.387c0 .852.187 1.611.562 2.275a4.037 4.037 0 0 0 1.602 1.56c.699.375 1.535.563 2.506.563.972 0 1.807-.188 2.506-.563a3.961 3.961 0 0 0 1.602-1.56c.375-.664.563-1.423.563-2.275v-11.387zm20.175 0V384h-2.045l-9.512-13.705h-.17V384h-2.114v-17.455h2.046l9.545 13.739h.17v-13.739h2.08zM399.135 384h-5.387v-17.455h5.625c1.694 0 3.142.35 4.347 1.049 1.205.693 2.128 1.69 2.77 2.991.642 1.296.963 2.847.963 4.654 0 1.818-.324 3.383-.972 4.696-.647 1.306-1.591 2.312-2.829 3.017-1.239.699-2.745 1.048-4.517 1.048zm-3.273-1.875h3.136c1.444 0 2.64-.278 3.588-.835a5.152 5.152 0 0 0 2.123-2.378c.466-1.028.698-2.253.698-3.673 0-1.409-.23-2.623-.69-3.64-.46-1.022-1.148-1.806-2.062-2.352-.915-.551-2.054-.827-3.418-.827h-3.375v13.705zm15.228 2.011c-.42 0-.781-.15-1.082-.451a1.474 1.474 0 0 1-.452-1.083c0-.42.15-.781.452-1.082a1.477 1.477 0 0 1 1.082-.452c.42 0 .781.151 1.082.452.302.301.452.662.452 1.082 0 .279-.071.534-.213.767a1.589 1.589 0 0 1-.554.563 1.464 1.464 0 0 1-.767.204z" fill="currentColor"/><path d="m340.797 64.448-2.899-.91-2.388 1.872-.033-3.04-2.514-1.7 2.879-.962.836-2.921 1.811 2.443 3.031-.107-1.764 2.477 1.041 2.848zM358.795 90.677l-4.471-1.407-3.701 2.888-.04-4.694-3.888-2.629 4.445-1.487 1.3-4.514 2.786 3.77 4.69-.159-2.726 3.824 1.605 4.408zM618.573 121.947l-5.705-1.799-4.716 3.684-.053-5.988-4.962-3.352 5.672-1.899 1.651-5.756 3.563 4.813 5.977-.205-3.47 4.872 2.043 5.63zM576.803 166.353l-4.478-1.414-3.695 2.888-.039-4.694-3.888-2.622 4.445-1.494 1.293-4.507 2.793 3.771 4.69-.16-2.726 3.817 1.605 4.415zM82.255 35.588l-5.705-1.8-4.716 3.685-.054-5.988-4.962-3.353 5.679-1.898 1.652-5.756 3.555 4.813 5.984-.206-3.476 4.873 2.043 5.63zM41.078 124.52l-4.47-1.414-3.702 2.887-.04-4.693-3.887-2.622 4.444-1.494 1.3-4.508 2.787 3.771 4.69-.166-2.727 3.824 1.605 4.415zM60.463 151.805l-4.477-1.408-3.695 2.888-.04-4.694-3.888-2.628 4.445-1.488 1.294-4.507 2.792 3.771 4.69-.166-2.726 3.823 1.605 4.409z" fill="#FFDD65" class="star-icon"/></svg>