<svg width="100" height="100" fill="none" xmlns="http://www.w3.org/2000/svg"><g clip-path="url(#a)"><path d="M100 50c0 15.11-6.71 28.66-17.31 37.82-1.68 1.46-3.45 2.8-5.31 4.01C69.52 97 60.11 100 50 100a49.96 49.96 0 0 1-18.24-3.43c-1.68-.66-3.31-1.41-4.9-2.24C10.89 85.99 0 69.26 0 50 0 22.38 22.38 0 50 0s50 22.38 50 50z" fill="#282828"/><path d="M77.38 91.83c.62-52.14-7.55-66.61-10.49-70.11L49.64 35.1 33.17 22.74l-8.79 32.05c-.03.12-.01.24.06.35l6.41 9.61-4.38 2.92-6.41-9.61a5.677 5.677 0 0 1-.75-4.67l9.09-33.16a4.463 4.463 0 0 1 2.86-3.05c1.41-.47 2.95-.23 4.14.65l14.19 10.65 14.76-11.46c1.68-1.31 4.12-1.17 5.65.32 4.37 4.23 12.89 19.12 12.69 70.48-1.68 1.46-3.45 2.8-5.31 4.01zM36.54 74.65l-4.78 21.92c-1.68-.66-3.31-1.41-4.9-2.24l4.53-20.81 5.15 1.13z" fill="#EAEDF3"/></g><defs><clipPath id="a"><path fill="#fff" d="M0 0h100v100H0z"/></clipPath></defs></svg>